<svg xmlns="http://www.w3.org/2000/svg" viewBox="0 0 16 14.14"><g id="Layer_1" data-name="Layer 1"><path d="M10.43,6.26H7.74a.54.54,0,0,0,0,1.07h2.69a.54.54,0,0,0,0-1.07Z" transform="translate(0 -0.93)"/><path d="M9.09,4.92a.54.54,0,0,0-.54.53V8.14a.54.54,0,0,0,1.07,0V5.45A.53.53,0,0,0,9.09,4.92Z" transform="translate(0 -0.93)"/><polygon points="13.94 8.14 4.33 8.62 4.21 7.98 3.31 3.2 14.82 3.2 13.94 8.14" style="fill:none"/></g><g id="Layer_2" data-name="Layer 2"><path d="M15.47,3.06H3.08L2.65,1.33a.54.54,0,0,0-.52-.4H.53A.54.54,0,0,0,.53,2H1.72l.42,1.71,1.6,8.52a.54.54,0,0,0,.53.43h9.6a.53.53,0,0,0,0-1.06H4.71l-.19-1,9.88-.49a.54.54,0,0,0,.5-.43L16,3.7a.34.34,0,0,0,0-.1A.54.54,0,0,0,15.47,3.06Zm-1.53,6-9.61.48L4.2,8.91,3.31,4.13H14.82Z" transform="translate(0 -0.93)"/><circle cx="5.33" cy="13.07" r="1.07"/><circle cx="12.8" cy="13.07" r="1.07"/></g></svg>