<?xml version="1.0" encoding="utf-8"?>
<!-- Generator: Adobe Illustrator 26.0.3, SVG Export Plug-In . SVG Version: 6.00 Build 0)  -->
<svg version="1.1" id="Layer_1" xmlns="http://www.w3.org/2000/svg" xmlns:xlink="http://www.w3.org/1999/xlink" x="0px" y="0px"
	 viewBox="0 0 16 16" style="enable-background:new 0 0 16 16;" xml:space="preserve">
<path d="M0,0.5C0,0.2,0.2,0,0.5,0h1.6c0.2,0,0.5,0.2,0.5,0.4l0.4,1.7h12.4c0.3,0,0.5,0.2,0.5,0.5c0,0,0,0.1,0,0.1l-1.1,5.3
	c0,0.2-0.3,0.4-0.5,0.4L4.4,9l0.3,1.6h9.2c0.3,0,0.5,0.2,0.5,0.5s-0.2,0.5-0.5,0.5H4.3c-0.3,0-0.5-0.2-0.5-0.4L2.1,2.8L1.7,1.1H0.5
	C0.2,1.1,0,0.8,0,0.5z M3.3,3.2L4.2,8L14,7.5l0.9-4.3H3.3z M5.3,11.7c-1.2,0-2.1,1-2.1,2.1s1,2.1,2.1,2.1s2.1-1,2.1-2.1
	S6.5,11.7,5.3,11.7z M12.8,11.7c-1.2,0-2.1,1-2.1,2.1s1,2.1,2.1,2.1s2.1-1,2.1-2.1S14,11.7,12.8,11.7z M5.3,12.8
	c0.6,0,1.1,0.5,1.1,1.1c0,0.6-0.5,1.1-1.1,1.1s-1.1-0.5-1.1-1.1C4.3,13.3,4.7,12.8,5.3,12.8z M12.8,12.8c0.6,0,1.1,0.5,1.1,1.1
	c0,0.6-0.5,1.1-1.1,1.1c-0.6,0-1.1-0.5-1.1-1.1C11.7,13.3,12.2,12.8,12.8,12.8z"/>
<polygon points="15.2,5.1 12.8,5.1 12.8,2.5 11.8,2.5 11.8,5.1 9.7,5.1 9.7,2.5 8.6,2.5 8.6,5.1 6.6,5.1 6.6,2.5 5.5,2.5 5.5,5.1 
	2.9,5.1 2.9,6.1 5.5,6.1 5.5,8.7 6.6,8.7 6.6,6.1 8.6,6.1 8.6,8.7 9.7,8.7 9.7,6.1 11.8,6.1 11.8,8.2 12.8,8.2 12.8,6.1 15.2,6.1 
	"/>
</svg>
