<?xml version="1.0" encoding="utf-8"?>
<!-- Generator: Adobe Illustrator 26.0.3, SVG Export Plug-In . SVG Version: 6.00 Build 0)  -->
<svg version="1.1" xmlns="http://www.w3.org/2000/svg" xmlns:xlink="http://www.w3.org/1999/xlink" x="0px" y="0px"
	 viewBox="0 0 16 16" style="enable-background:new 0 0 16 16;" xml:space="preserve">
<g id="Layer_3">
	<path d="M15.5,3.8l-1,5.6L3.7,9.9L3.6,9.2l-1-5.4H15.5 M15.9,3.5h-0.3h-13H2.2l0.1,0.3l1,5.4L3.4,10l0,0.2l0.2,0l10.8-0.5l0.2,0
		l0-0.2l1-5.6L15.9,3.5L15.9,3.5z"/>
</g>
<g id="Layer_2">
	<path d="M15.5,3.1H3.1L2.7,1.3C2.6,1.1,2.4,0.9,2.1,0.9H0.5C0.2,0.9,0,1.2,0,1.5C0,1.8,0.2,2,0.5,2h1.2l0.4,1.7l1.6,8.5
		c0,0.3,0.3,0.4,0.5,0.4h1.1h7.5h1.1c0.3,0,0.5-0.2,0.5-0.5s-0.2-0.5-0.5-0.5H4.7l-0.2-1l9.9-0.5c0.2,0,0.4-0.2,0.5-0.4l1.1-6
		c0,0,0-0.1,0-0.1C16,3.3,15.8,3.1,15.5,3.1z M13.9,9.1L4.3,9.6L4.2,8.9L3.3,4.1h11.5L13.9,9.1z"/>
	<circle cx="5.3" cy="14" r="1.1"/>
	<circle cx="12.8" cy="14" r="1.1"/>
</g>
<g id="Layer_1">
	<path d="M10.4,6.3H7.7c-0.3,0-0.5,0.2-0.5,0.5c0,0.3,0.2,0.5,0.5,0.5h2.7c0.3,0,0.5-0.2,0.5-0.5C11,6.5,10.7,6.3,10.4,6.3z"/>
	<path d="M9.1,4.9c-0.3,0-0.5,0.2-0.5,0.5v2.7c0,0.3,0.2,0.5,0.5,0.5c0.3,0,0.5-0.2,0.5-0.5V5.5C9.6,5.2,9.4,4.9,9.1,4.9z"/>
</g>
</svg>
