<?xml version="1.0" encoding="utf-8"?>
<!-- Generator: Adobe Illustrator 26.0.3, SVG Export Plug-In . SVG Version: 6.00 Build 0)  -->
<svg version="1.1" id="orange" xmlns="http://www.w3.org/2000/svg" xmlns:xlink="http://www.w3.org/1999/xlink" x="0px" y="0px"
	 viewBox="0 0 32 32" style="enable-background:new 0 0 32 32;" xml:space="preserve">
<style type="text/css">
	.st0{fill:#FFFFFF;}
</style>
<path class="st0" d="M17.9,2.2C10.3,2.2,4.1,8.4,4.1,16c0,1.6,0.3,3.2,0.8,4.7l-1.8,1.8L0.5,25c-0.3,0.3-0.3,0.8,0,1.1
	c2.5,2.4,5.7,3.7,8.9,3.7c1.4,0,2.8-0.2,4.1-0.7c1.4,0.5,2.9,0.7,4.4,0.7c7.6,0,13.8-6.2,13.8-13.8S25.5,2.2,17.9,2.2z M8.7,19.1
	v5.5c-1.4-0.1-2.8-0.7-3.9-1.6L8.7,19.1z M9.4,28.2c-2.7,0-5.2-0.9-7.2-2.7L3.6,24c1.6,1.4,3.7,2.1,5.8,2.1c2.3,0,4.6-0.9,6.4-2.6
	c3.3-3.3,3.5-8.6,0.5-12.1l1.5-1.5c3.8,4.3,3.6,10.9-0.5,15C15.1,27.1,12.3,28.2,9.4,28.2z M16.8,18c-0.2,1.4-0.7,2.7-1.6,3.9
	L11.3,18H16.8z M11.3,16.4l3.9-3.9c0.9,1.1,1.4,2.5,1.6,3.9H11.3z M14.1,22.9c-1.1,0.9-2.5,1.5-3.9,1.6v-5.5L14.1,22.9z M17.9,28.4
	c-0.8,0-1.5-0.1-2.2-0.2c1-0.5,1.9-1.2,2.7-2c4.9-5,4.9-13-0.1-17.9C18.3,8.1,18,8,17.8,8c-0.2,0-0.4,0.1-0.5,0.2l-8.3,8.4L6,19.5
	c-0.3-1.1-0.5-2.3-0.5-3.5c0-6.8,5.5-12.4,12.4-12.4S30.3,9.2,30.3,16S24.7,28.4,17.9,28.4z"/>
</svg>
