<svg id="orange" xmlns="http://www.w3.org/2000/svg" viewBox="0 0 31.43 27.64"><path d="M17.89,2.18a13.78,13.78,0,0,0-13,18.49l-1.81,1.8L.52,25a.76.76,0,0,0,0,1.09,12.81,12.81,0,0,0,9,3.66,12.5,12.5,0,0,0,4.06-.69A13.81,13.81,0,1,0,17.89,2.18ZM8.69,19.05v5.48A7.33,7.33,0,0,1,4.8,22.94Zm.7,9.18a10.74,10.74,0,0,1-7.24-2.72L3.63,24a8.76,8.76,0,0,0,5.76,2.1,9,9,0,0,0,6.92-14.7L17.79,10a11,11,0,0,1-.55,15A11.07,11.07,0,0,1,9.39,28.23ZM16.77,18a7.6,7.6,0,0,1-1.59,3.85L11.33,18Zm-5.44-1.55,3.89-3.89a7.22,7.22,0,0,1,1.57,3.89Zm2.77,6.5a7.33,7.33,0,0,1-3.86,1.61V19.05Zm3.79,5.46a11.87,11.87,0,0,1-2.23-.21,12.68,12.68,0,0,0,2.75-2,12.65,12.65,0,0,0-.08-17.89C18.26,8.08,18,8,17.79,8a.7.7,0,0,0-.55.23l-8.32,8.4L6,19.52A12.23,12.23,0,0,1,5.53,16,12.37,12.37,0,1,1,17.89,28.37Z" transform="translate(-0.29 -2.18)"/></svg>